<svg
  id="Contenido"
  xmlns="http://www.w3.org/2000/svg"
  xmlns:xlink="http://www.w3.org/1999/xlink"
  viewBox="0 0 600 600"
><defs><style
    >.cls-1{fill:none;}.cls-2{fill:url(#Degradado_sin_nombre_23);}.cls-3{fill:#1464a5;}.cls-4{fill:url(#Degradado_sin_nombre_14);}.cls-5{clip-path:url(#clip-path);}.cls-6{fill:#46b19b;}.cls-7{fill:#2dcccd;}.cls-8{fill:url(#Degradado_sin_nombre_18);}
      @keyframes drawWheel {
            from {
                transform:   rotate(360deg);
            }
            to {
            transform:  rotate(0deg);
            }
        }
      #Contenido {
            animation-duration: 6s;
            animation-name: drawWheel; 
            animation-iteration-count: infinite;
            animation-direction: normal;
            transform-box:fill-box;
            transform-origin: center center;
            animation-timing-function:linear;
            }
    #Contenido:hover  {
        animation-duration: 3s;
        
        }
    
    </style><clipPath id="clip-path"><path
        class="cls-1"
        d="M471.38,297.79A175,175,0,1,1,295,124.2,175,175,0,0,1,471.38,297.79"
      /></clipPath></defs><title>_</title><path
    class="cls-2"
    d="M521.38,347.79A175,175,0,1,1,345,174.2,175,175,0,0,1,521.38,347.79"
  /><path 
    class="cls-3"
    d="M471.38,297.79A175,175,0,1,1,295,124.2,175,175,0,0,1,471.38,297.79"
  /><path
    class="cls-4"
    d="M379.64,145.25,212.25,452.67A175,175,0,1,0,379.64,145.25Z"
  /><g class="cls-5"><path
      class="cls-6"
      d="M404.8,406.74a7.38,7.38,0,0,0-3.57.65,7.8,7.8,0,0,0-3.29,4.84c-.44,2.11,0,4.29-.09,6.45-.22,4.15-2.5,7.86-4.21,11.65a.92.92,0,0,0-.11.7.82.82,0,0,0,.4.4c2.18,1.27,5,.2,7.12-1.11a20.94,20.94,0,0,0,4.68-3.69c3.78-4.14,4.9-10,5.87-15.53a2.47,2.47,0,0,0,0-1.35,2.32,2.32,0,0,0-1-1c-1.81-1-3-2.2-5.06-2Z"
    /><path
      class="cls-7"
      d="M287,178.51c-3.64,4-2.83,10.28-4.56,15.43-.77,2.28-2.07,4.37-2.71,6.69s-.63,4.91-1.11,7.35a17.32,17.32,0,0,1-3.3,7.21c-.57.73-1.23,1.7-.74,2.49.37.61,1.21.68,1.93.66a23.66,23.66,0,0,0,13.57-4.79,10.58,10.58,0,0,0,3.2-3.56,13.46,13.46,0,0,0,1-5.54l.48-12.94a68.51,68.51,0,0,0-.31-12.65,2.49,2.49,0,0,0-.68-1.61,2.36,2.36,0,0,0-1.6-.44A7.69,7.69,0,0,0,287,178.51Z"
    /><path
      class="cls-7"
      d="M235,161.68a16,16,0,0,0-12.25,7.61,7.32,7.32,0,0,0-1.11,2.94c-.3,3,2.4,5.6,5.24,6.74a14.86,14.86,0,0,0,6.25,1,30.3,30.3,0,0,0,4-.57L250,177c1.38-.26,2.93-.64,3.6-1.88a3.22,3.22,0,0,0-.32-3.19,9.72,9.72,0,0,0-2.43-2.31c-4-3-7.57-7.13-12.53-8Z"
    /><path
      class="cls-1"
      d="M302.1,437.47a32,32,0,0,1-4.59-19.69c.34-3.66,1.33-7.32.85-11-.93-7-7.06-12.25-13.37-15.51s-13.32-5.37-18.85-9.84c-10.28-8.3-13.15-23.1-11.27-36.18,2.13-14.91,10-26.51,21.65-35.65l14.24-11.15a63.27,63.27,0,0,1,10.05-6.86c5.48-2.77,11.65-3.86,17.75-4.56a123,123,0,0,1,22.45-.65c16,1.1,31.67,6,47.74,6.6a45.45,45.45,0,0,0,14.43-1.39c10.62-3.1,18.66-11.74,25.17-20.68,2.52-3.46,4.91-8.3,2.32-11.71-2.05-2.71-6.06-2.77-9.42-2.24s-7,1.35-10-.36c-2.67-1.56-3.86-4.71-5.64-7.23s-5.3-4.59-7.82-2.82a6.71,6.71,0,0,0-2.23,3.95c-1.34,5-1.79,10.1-3.07,15.06s-3.6,9.91-7.73,12.93a15.24,15.24,0,0,1-16.12.94c-1.15-.65-2.31-1.65-2.32-3a4.4,4.4,0,0,1,1-2.32q2.78-4.14,5.54-8.3c3-4.47,6.1-9.75,4.53-14.88-1.7-5.55-8.12-8.14-13.89-8.77a42.43,42.43,0,0,0-15.14,1.12c-4.61,1.21-9,3.2-13.7,4.07-3.46.65-7.11.7-10.27,2.27-5.55,2.76-7.92,9.26-10.07,15.09s-5.21,12.57-11.27,13.91c-18.54,4.1-28.19-12.37-27.52-22.27.47-6.91,3.53-14.17,10.07-16.44,6.78-2.35,15.29.41,20.81-4.19,6.49-5.42,3.52-16.4,8-23.58,3.5-5.61,10.61-7.54,17-9.23,12.27-3.24,21.24-8.23,27.32-19.36,7-12.8-5.3-13.43-7.9-12.38a29.74,29.74,0,0,0-11,7.78c-2.52,2.85-4.47,6.18-7,9s-6,5.18-9.81,5.21c-5.58.06-10.2-5.13-11-10.65s1.36-11.09,4.34-15.8c9.15-14.45,25.21-22.83,40.87-29.68.85-.38,1.69-.72,2.54-1.08a175.16,175.16,0,0,0-173.64,27.32,34.18,34.18,0,0,1,3.39,4.29c6.82,10.37,6.05,24.07,2.48,36s-9.62,22.94-12.85,34.92c-2.5,9.29-3.41,19.35-8.79,27.33-3,4.4-7.11,7.85-11.2,11.24l-15.33,12.73c-3.68,3.06-7.41,6.15-11.68,8.31a105.52,105.52,0,0,1-10.68,4.18,176.91,176.91,0,0,0,2,23.75,20.76,20.76,0,0,0,2.9,2.56c4.89,3.37,11.38,2.57,17.29,3.15a34.85,34.85,0,0,1,15.91,5.74,13.42,13.42,0,0,1,4.41,4.36,16.12,16.12,0,0,1,1.55,5.89q1.44,11.19,2.17,22.45c.33,5.12.55,10.25,1.11,15.34a116.22,116.22,0,0,0,17.69,49.84,175.37,175.37,0,0,0,142,35.88,125.45,125.45,0,0,0-14-19.49C310.23,447.08,305.41,442.84,302.1,437.47Z"
    /><path
      class="cls-1"
      d="M433.21,360c-6.53-3.6-14.44-3.66-21.82-2.56-3.17.47-6.48,1.22-8.83,3.4-4.46,4.12-3.65,11.22-2.89,17.24.84,6.67,1.12,13.71-1.66,19.83-4.39,9.72-15.09,14.61-23,21.79A47.18,47.18,0,0,0,360.67,462a175.66,175.66,0,0,0,91.83-83.68,36.52,36.52,0,0,1-3.87-3.44C443.64,369.73,439.49,363.49,433.21,360Z"
    /><path
      class="cls-7"
      d="M359.72,136c-.85.36-1.69.7-2.54,1.08-15.66,6.85-31.72,15.23-40.87,29.68-3,4.71-5.17,10.28-4.34,15.8s5.45,10.71,11,10.65c3.81,0,7.24-2.4,9.81-5.21s4.52-6.14,7-9a29.74,29.74,0,0,1,11-7.78c2.6-1.05,14.88-.42,7.9,12.38-6.08,11.13-15.05,16.12-27.32,19.36-6.4,1.69-13.51,3.62-17,9.23-4.48,7.18-1.51,18.16-8,23.58-5.52,4.6-14,1.84-20.81,4.19-6.54,2.27-9.6,9.53-10.07,16.44-.67,9.9,9,26.37,27.52,22.27,6.06-1.34,9.12-8.09,11.27-13.91s4.52-12.33,10.07-15.09c3.16-1.57,6.81-1.62,10.27-2.27,4.69-.87,9.09-2.86,13.7-4.07a42.43,42.43,0,0,1,15.14-1.12c5.77.63,12.19,3.22,13.89,8.77,1.57,5.13-1.55,10.41-4.53,14.88q-2.78,4.16-5.54,8.3a4.4,4.4,0,0,0-1,2.32c0,1.31,1.17,2.31,2.32,3a15.24,15.24,0,0,0,16.12-.94c4.13-3,6.44-8,7.73-12.93s1.73-10.11,3.07-15.06a6.71,6.71,0,0,1,2.23-3.95c2.52-1.77,6,.3,7.82,2.82s3,5.67,5.64,7.23c2.93,1.71,6.61.9,10,.36s7.37-.47,9.42,2.24c2.59,3.41.2,8.25-2.32,11.71-6.51,8.94-14.55,17.58-25.17,20.68A45.45,45.45,0,0,1,388.75,293c-16.07-.62-31.7-5.5-47.74-6.6a123,123,0,0,0-22.45.65c-6.1.7-12.27,1.79-17.75,4.56a63.27,63.27,0,0,0-10.05,6.86l-14.24,11.15c-11.68,9.14-19.52,20.74-21.65,35.65-1.88,13.08,1,27.88,11.27,36.18,5.53,4.47,12.54,6.58,18.85,9.84s12.44,8.47,13.37,15.51c.48,3.64-.51,7.3-.85,11a32,32,0,0,0,4.59,19.69c3.31,5.37,8.13,9.61,12.37,14.3a125.45,125.45,0,0,1,14,19.49A174.08,174.08,0,0,0,360.67,462,47.18,47.18,0,0,1,375,419.72c7.89-7.18,18.59-12.07,23-21.79,2.78-6.12,2.5-13.16,1.66-19.83-.76-6-1.57-13.12,2.89-17.24,2.35-2.18,5.66-2.93,8.83-3.4,7.38-1.1,15.29-1,21.82,2.56,6.28,3.47,10.43,9.71,15.42,14.86a36.52,36.52,0,0,0,3.87,3.44A175.09,175.09,0,0,0,359.72,136Z"
    /><path
      class="cls-7"
      d="M143.78,289.81l15.33-12.73c4.09-3.39,8.23-6.84,11.2-11.24,5.38-8,6.29-18,8.79-27.33,3.23-12,9.28-23,12.85-34.92s4.34-25.59-2.48-36a34.18,34.18,0,0,0-3.39-4.29A174.64,174.64,0,0,0,121.39,300.6c0,.57,0,1.13,0,1.7a105.52,105.52,0,0,0,10.68-4.18C136.37,296,140.1,292.87,143.78,289.81Z"
    /><path
      class="cls-7"
      d="M167.67,370.2q-.73-11.25-2.17-22.45a16.12,16.12,0,0,0-1.55-5.89,13.42,13.42,0,0,0-4.41-4.36,34.85,34.85,0,0,0-15.91-5.74c-5.91-.58-12.4.22-17.29-3.15a20.76,20.76,0,0,1-2.9-2.56,174.78,174.78,0,0,0,63,109.33,116.22,116.22,0,0,1-17.69-49.84C168.22,380.45,168,375.32,167.67,370.2Z"
    /><path
      class="cls-1"
      d="M302.1,437.47a32,32,0,0,1-4.59-19.69c.22-2.31.69-4.61.88-6.92L365,289.93A171.28,171.28,0,0,0,388.75,293a45.45,45.45,0,0,0,14.43-1.39c10.62-3.1,18.66-11.74,25.17-20.68,2.52-3.46,4.91-8.3,2.32-11.71-2.05-2.71-6.06-2.77-9.42-2.24s-7,1.35-10-.36c-2.67-1.56-3.86-4.71-5.64-7.23s-5.3-4.59-7.82-2.82a6.71,6.71,0,0,0-2.23,3.95c-1.34,5-1.79,10.1-3.07,15.06s-3.6,9.91-7.73,12.93a15.28,15.28,0,0,1-14.45,1.74l54.84-99.53a174.93,174.93,0,1,0-96.74,290.52,125.45,125.45,0,0,0-14-19.49C310.23,447.09,305.41,442.84,302.1,437.47Z"
    /><path
      class="cls-1"
      d="M433.21,360c-6.53-3.61-14.44-3.66-21.82-2.56-3.17.47-6.48,1.22-8.83,3.4-4.46,4.12-3.65,11.22-2.89,17.24.84,6.67,1.12,13.71-1.66,19.83-4.39,9.72-15.09,14.61-23,21.79A47.18,47.18,0,0,0,360.67,462a175.66,175.66,0,0,0,91.83-83.68,36.52,36.52,0,0,1-3.87-3.44C443.64,369.73,439.49,363.49,433.21,360Z"
    /><path
      class="cls-8"
      d="M425.19,180.74l-54.84,99.53a15.28,15.28,0,0,0,14.45-1.74c4.13-3,6.44-8,7.73-12.93s1.73-10.11,3.07-15.06a6.71,6.71,0,0,1,2.23-3.95c2.52-1.77,6,.3,7.82,2.82s3,5.67,5.64,7.23c2.93,1.71,6.61.9,10,.36s7.37-.47,9.42,2.24c2.59,3.41.2,8.25-2.32,11.71-6.51,8.94-14.55,17.58-25.17,20.68A45.45,45.45,0,0,1,388.75,293,171.28,171.28,0,0,1,365,289.93L298.39,410.86c-.19,2.31-.66,4.61-.88,6.92a32,32,0,0,0,4.59,19.69c3.31,5.37,8.13,9.62,12.37,14.3a125.45,125.45,0,0,1,14,19.49A174.08,174.08,0,0,0,360.67,462,47.18,47.18,0,0,1,375,419.72c7.89-7.18,18.59-12.07,23-21.79,2.78-6.12,2.5-13.16,1.66-19.83-.76-6-1.57-13.12,2.89-17.24,2.35-2.18,5.66-2.93,8.83-3.4,7.38-1.1,15.29-1,21.82,2.56,6.28,3.47,10.43,9.71,15.42,14.86a36.52,36.52,0,0,0,3.87,3.44,175.05,175.05,0,0,0-27.31-197.58Z"
    /></g></svg>
