
 <svg xmlns:svg="http://www.w3.org/2000/svg" xmlns="http://www.w3.org/2000/svg" width="50" height="50" viewBox="0 0 60 60">
    <style type="text/css">
        <![CDATA[
      

       @keyframes drawWheel {
            from {
                transform:   rotate(360deg);
            }
            to {
            transform:  rotate(0deg);
            }
        }
        
        #rueda {
            animation-duration: 6s;
            animation-name: drawWheel; 
            animation-iteration-count: infinite;
            animation-direction: normal;
            transform-box:fill-box;
            transform-origin: center center;
            animation-timing-function:linear;
            }
            #rueda:hover  {
                animation-duration: 3s;
                
                }
            #circle, #letra{
                pointer-events: none;
            }
            .rueda{
                fill: #e6e6e6;
                fill-opacity: 1;
                stroke: #a1a1a1; 
                stroke-width: 3.23879075;
                stroke-opacity: 1 ;
            }
            .textLogo
             {
                font-style:normal;
                font-variant:normal;
                font-stretch:normal;
                font-size:70.02639008px;
                line-height:1.25;
                font-family:monospace;
                -inkscape-font-specification:monospace, Bold;
                font-variant-ligatures:normal;
                font-variant-caps:normal;
                font-variant-numeric:normal;
                font-feature-settings:normal;
                text-align:center;
                letter-spacing:0px;
                word-spacing:0px;
                writing-mode:lr-tb;
                text-anchor:middle;
                opacity:0.95700001;
                fill:#80d6fa;
                fill-opacity:1;
                stroke:#38adfd;
                stroke-width:5.67112494;
                stroke-linejoin:bevel;
                stroke-miterlimit:4;
                stroke-dasharray:none;
                stroke-opacity:0.97647059
            }
            .circle{
                 fill: #ffffff;
                 fill-opacity: 1;
                 stroke: #a1a1a1;
                 stroke-width: 3.23879075;
                 stroke-opacity: 1 ;
            }
            .tspan6475{
               stroke-width: 1.75100005 
            }
            .ola1{
                fill: #38adfc;
                 fill-opacity: 0.98431373;
                 stroke-width: 1.30365336; 
            }
            .ola2{
                fill: #80d6fa;
                stroke-width: 1.25585496 ;
            }

        ]]>
    </style>
            <g id="g918" transform="matrix(0.30808445,0,0,0.28715649,-11.824181,-34.31074)" >
                <g transform="translate(5.7621461,-1.5700738)" id="g908">
                    <path
                        id="rueda"
                        class="rueda"
                        d="m 126.21347,122.83916 c -9.77798,0.61193 -17.19339,6.24356 -19.41582,13.06137 -1.14752,3.52025 -0.86734,6.95851 0.3088,10.08427 A 74.738968,74.742364 0 0 0 83.826227,158.28565 L 72.234449,143.90387 c -7.277744,5.83194 -10.134577,14.51269 -8.121306,21.45289 0.970263,3.34473 2.92182,5.95181 5.408434,7.8879 a 74.738968,74.742364 0 0 0 -11.428712,23.66227 l -0.330454,-0.10246 -17.917966,-5.57752 c -2.814491,9.07998 -0.306074,18.11998 5.392563,22.64055 3.031824,2.40506 6.52797,3.27964 10.018885,3.15025 a 74.738968,74.742364 0 0 0 -0.0015,0.0231 74.738968,74.742364 0 0 0 4.603232,25.65082 l -0.14863,0.0592 -17.44033,6.98453 c 3.474336,8.77376 10.955021,14.00963 18.157509,14.04554 3.482049,0.0174 6.536428,-1.1247 9.095351,-2.97276 a 74.738968,74.742364 0 0 0 19.081041,18.41665 l -10.588873,15.24908 c 7.697833,5.29541 16.901859,5.56347 22.945447,1.64223 3.09112,-2.0056 5.04518,-4.82798 6.11263,-7.97449 a 74.738968,74.742364 0 0 0 22.92236,3.64235 74.738968,74.742364 0 0 0 2.90047,-0.10246 l 0.0303,0.65949 0.84849,18.90152 c 9.77799,-0.61196 17.19342,-6.24356 19.41583,-13.06136 1.1475,-3.52026 0.86734,-6.95707 -0.30881,-10.08283 a 74.738968,74.742364 0 0 0 23.28023,-12.30086 l 11.59177,14.38034 c 7.27774,-5.83195 10.1346,-14.51125 8.12132,-21.45145 -0.9702,-3.34444 -2.92069,-5.95186 -5.407,-7.8879 a 74.738968,74.742364 0 0 0 11.42727,-23.6637 l 0.33045,0.10246 17.91797,5.57752 c 2.81446,-9.07999 0.30608,-18.12001 -5.39256,-22.64055 -3.03183,-2.40506 -6.52797,-3.27965 -10.01888,-3.15026 a 74.738968,74.742364 0 0 0 0.001,-0.0231 74.738968,74.742364 0 0 0 -4.60323,-25.64795 l 0.15008,-0.0606 17.43888,-6.98453 c -3.47431,-8.77378 -10.95502,-14.00962 -18.15751,-14.04555 -3.48204,-0.0174 -6.53642,1.12471 -9.09534,2.97276 a 74.738968,74.742364 0 0 0 -19.08104,-18.41818 l 10.58887,-15.24764 c -7.69782,-5.29543 -16.90184,-5.56346 -22.94545,-1.64223 -3.0911,2.00557 -5.04372,4.82801 -6.11118,7.97449 a 74.738968,74.742364 0 0 0 -22.92236,-3.64235 74.738968,74.742364 0 0 0 -2.90191,0.10246 l -0.0303,-0.65949 z"
                    />
                    <ellipse id="circle" class="circle"
                        cx="129.99342"
                        cy="217.04085"
                        rx="60.273975"
                        ry="59.00948"  />

                    <text class="textLogo"
                        transform="scale(0.83445623,1.1983852)"
                        id="letra"
                        y="201.84889"
                        x="156.05574">
                        <tspan  id="tspan6475-3" class="tspan6475" y="201.84889" x="156.05574">
                            <tspan  class="tspan6475" id="tspan6473-8" y="201.84889" x="156.05574">
                                ASDPM
                        </tspan>
                        </tspan>
                    </text>
                </g>
                <path
                    class="ola1"
                    id="ola1"
                    d="m 55.168473,307.66141 c -6.715755,0 -10.073436,-3.26044 -13.431117,-6.52127 -1.007344,-0.97817 -2.014688,-1.95634 -3.357681,-2.93451 v -16.30261 c 1.342993,0.97817 2.350337,1.95635 3.357681,2.93452 3.357681,3.26044 6.715755,6.52127 13.431117,6.52127 6.715362,0 10.073436,-3.26045 13.431117,-6.52127 3.357681,-3.26083 6.715756,-6.52127 13.431118,-6.52127 6.715364,0 10.073434,3.26044 13.431114,6.52127 3.357677,3.26044 6.715758,6.52127 13.431118,6.52127 4.36503,0 7.38706,-1.3041 9.73779,-3.26045 1.34299,-0.97817 2.35033,-1.95634 3.69372,-3.26044 3.35768,-3.26044 6.71576,-6.52127 13.43112,-6.52127 6.71536,0 10.07344,3.26044 13.43112,6.52127 1.00734,0.97817 2.35033,2.28227 3.69372,3.26044 2.35034,1.95635 5.37237,3.26045 9.73779,3.26045 6.71575,0 10.07343,-3.26045 13.43111,-6.52127 3.35769,-3.26045 6.71576,-6.52127 13.43112,-6.52127 6.71576,0 10.07344,3.26044 13.43112,6.52127 3.35768,3.26044 6.71575,6.52127 13.43112,6.52127 6.71575,0 10.07343,-3.26045 13.43111,-6.52127 1.00735,-0.97817 2.01469,-1.95635 3.35769,-2.93452 v 16.30299 c -1.343,0.97817 -2.35034,1.95634 -3.35769,2.93451 -3.35768,3.26045 -6.71575,6.52127 -13.43111,6.52127 -6.71576,0 -10.07344,-3.26044 -13.43112,-6.52127 -3.35768,-3.26044 -6.71576,-6.52127 -13.43112,-6.52127 -6.71575,0 -10.07343,3.26045 -13.43112,6.52127 -3.35768,3.26045 -6.71575,6.52127 -13.43111,6.52127 -6.71576,0 -10.07344,-3.26044 -13.43112,-6.52127 -3.35768,-3.26044 -6.71576,-6.52127 -13.43112,-6.52127 -6.71536,0 -10.07343,3.26045 -13.43112,6.52127 -3.35768,3.26045 -6.71575,6.52127 -13.43111,6.52127 -6.71536,0 -10.073441,-3.26044 -13.431118,-6.52127 -3.35768,-3.26044 -6.71576,-6.52127 -13.431117,-6.52127 -6.715362,0 -10.073437,3.26045 -13.431118,6.52127 -3.358468,3.26045 -6.716149,6.52089 -13.431904,6.52089"
                    
                />
                <path class="ola2"
                    id="ola2"
                    d="m 55.168477,328.42828 c -6.715755,0 -10.073436,-3.26045 -13.431117,-6.52128 -1.007343,-0.97817 -2.014687,-1.95634 -3.357681,-2.93451 v -16.3026 c 1.342994,0.97817 2.350338,1.95634 3.357681,2.93451 3.357681,3.26045 6.715755,6.52127 13.431117,6.52127 6.715362,0 10.073435,-3.26044 13.431117,-6.52127 3.357681,-3.26083 6.715754,-6.52127 13.431117,-6.52127 6.715362,0 10.073432,3.26044 13.431112,6.52127 3.357687,3.26045 6.715757,6.52127 13.431117,6.52127 4.36503,0 7.38706,-1.3041 9.73779,-3.26044 1.34299,-0.97817 2.35034,-1.95635 3.69372,-3.26045 3.35768,-3.26044 6.71576,-6.52127 13.43112,-6.52127 6.71537,0 10.07344,3.26045 13.43112,6.52127 1.00734,0.97817 2.35034,2.28228 3.69372,3.26045 2.35034,1.95634 5.37237,3.26044 9.73779,3.26044 6.71576,0 10.07344,-3.26044 13.43112,-6.52127 3.35768,-3.26044 6.71575,-6.52127 13.43112,-6.52127 6.71575,0 10.07343,3.26044 13.43111,6.52127 3.35768,3.26045 6.71576,6.52127 13.43112,6.52127 6.71575,0 10.07343,-3.26044 13.43112,-6.52127 1.00734,-0.97817 2.01468,-1.95634 3.35768,-2.93451 v 16.30298 c -1.343,0.97817 -2.35034,1.95635 -3.35768,2.93452 -3.35769,3.26044 -6.71576,6.52127 -13.43112,6.52127 -6.71576,0 -10.07344,-3.26045 -13.43112,-6.52127 -3.35768,-3.26045 -6.71575,-6.52127 -13.43111,-6.52127 -6.71576,0 -10.07344,3.26044 -13.43112,6.52127 -3.35768,3.26044 -6.71576,6.52127 -13.43112,6.52127 -6.71575,0 -10.07344,-3.26045 -13.43112,-6.52127 -3.35768,-3.26045 -6.71575,-6.52127 -13.43112,-6.52127 -6.71536,0 -10.07343,3.26044 -13.43111,6.52127 -3.35768,3.26044 -6.71576,6.52127 -13.43112,6.52127 -6.71536,0 -10.07344,-3.26045 -13.431117,-6.52127 -3.35768,-3.26045 -6.71575,-6.52127 -13.431116,-6.52127 -6.71536,0 -10.073436,3.26044 -13.431115,6.52127 -3.35847,3.26044 -6.71615,6.52089 -13.431905,6.52089"
                    
                />
            </g>
        </svg>